<?xml version="1.0" encoding="utf-8"?>
<!-- Generator: Adobe Illustrator 19.2.1, SVG Export Plug-In . SVG Version: 6.00 Build 0)  -->
<svg version="1.1" id="layer" xmlns="http://www.w3.org/2000/svg" xmlns:xlink="http://www.w3.org/1999/xlink" x="0px" y="0px"
	 viewBox="0 0 652 652" style="enable-background:new 0 0 652 652;" xml:space="preserve">
<style type="text/css">
	.st0{fill:#2D903C;}
	.st1{fill:#A5CF46;}
</style>
<polygon class="st0" points="200.7,402.7 200.7,404 202.8,404 202.8,409.8 204.3,409.8 204.3,404 206.4,404 206.4,402.7 "/>
<g>
	<path class="st0" d="M212,402.7h2.1v7.1h-1.4V405c0-0.1,0-0.3,0-0.6v-0.6l-1.3,6H210l-1.3-6c0,0.1,0,0.3,0,0.6c0,0.3,0,0.4,0,0.6
		v4.8h-1.4v-7.1h2.2l1.3,5.6L212,402.7"/>
	<path class="st1" d="M79.5,338.5c2.9,3.4,6.1,6.6,9.1,10c2.6,2.9,2.8,4.3,1,7.4c2.8,2.5,5.6,5,8.4,7.5c3.9,3.5,8,6.9,13.1,8.6
		c1,0.3,1.9,0.8,2.8,1.1c0.6,0.2,1.4,0.3,2,0.1c10.3-4,20-9,29.2-15.2c17.8-11.9,32-27.2,43.2-45.3c7-11.3,12.9-23.3,17.8-35.7
		c4.9-12.4,9.5-24.8,14.3-37.3c0.9-2.3,1.8-4.5,2.6-6.8c-0.1,0-0.1-0.1-0.2-0.1c-0.2,0.2-0.5,0.4-0.7,0.6
		c-4.2,4.4-8.5,8.8-12.6,13.3c-2.4,2.6-4.6,5.4-7,8.1c-1.5,1.7-2.6,1.7-4,0.3c-1.7-1.6-2.7-1.5-4,0.4c-0.4,0.6-0.8,1.2-1.1,1.8
		c-2.2,4-4.3,8-6.5,12c-1,1.8-2.1,3.7-3.3,5.4c-1.2,1.6-2.5,1.6-3.9,0.2c-0.8-0.8-1.6-1.7-2.3-2.6c-2.3-2.9-4.5-5.8-6.8-8.7
		c-0.3,0.5-0.5,0.8-0.6,1.1c-3.3,6.6-6.5,13.3-9.8,19.9c-0.5,1.1-1.2,2.1-1.9,3c-1.4,1.6-2.8,1.7-4.4,0.3c-0.7-0.6-1.2-1.3-1.9-1.9
		c-1.4,3-1.2,6.1-1.4,9.2c-0.6,7.6-1,15.2-1.9,22.8c-0.4,2.9-1.8,5.7-2.9,8.4c-0.5,1.4-1.7,2.3-3.3,2.1c-1.4-0.2-2.5-1.3-3-3
		c-0.1-0.6-0.2-1.1-0.4-1.7c-0.9-4.8-1.8-9.7-2.7-14.5c-1.2-6.6-2.4-13.2-3.7-19.7c-0.8-4.4-2.1-8.7-4.9-12.4
		c-0.3-0.4-0.4-0.9-0.5-1.3c-0.6-2.5-1-5-1.6-7.5c-2.4-10.6-4.7-21.2-7.1-31.7c-0.6-2.6-1.3-5.1-1.9-7.7c-1.8,1.2-3.8,3.8-5.1,6.6
		c-2.2,4.6-3.1,9.6-3.9,14.6c-0.4,2.5-0.9,4.9-1.4,7.7c-3-2.8-5.7-5.3-8.5-8c-0.8,4-0.5,7.6-0.1,11.2c0.5,4.4,1,8.8,1.4,13.2
		c0.2,2.4-0.9,3.1-3.1,2.1c-0.2-0.1-0.4-0.2-0.6-0.3c-3.2-1.5-6.5-3-10.1-4.7c0.5,2.8,0.8,5.1,1.4,7.4c3.2,13.5,6.5,27,9.8,40.5
		c0.3,1.1,0.4,2.3,0.4,3.4c0,1.9-1.3,2.9-3.2,2.5c-1-0.2-2-0.5-2.9-1c-4.9-2.6-9.8-5.3-14.7-8c-2.3-1.2-4.7-2.4-7.2-3.7
		c-0.3,4.1,0.4,7.8,1.8,11.4C72.3,329.4,75.7,334.1,79.5,338.5"/>
	<path class="st0" d="M244.5,359.9c-4.4,0.7-8.8,1.5-13.1,2.3c-2.5,0.4-3.2-0.4-2.8-2.8c0.1-0.7,0.1-1.5,0.2-2.5
		c-1.2,0.2-2.2,0.4-3.2,0.6c-5.1,1.3-10.1,2.9-15.2,4c-6.6,1.5-13.4,1.8-20.1,0.7c-0.9-0.1-2.4-0.7-2.5-1.2c-0.1-1,0.6-2.1,1-3.1
		c0-0.1,0.2-0.2,0.3-0.3c2.4-1.9,4.5-3.9,7.1-5.5c5.2-3.2,10.6-6.1,15.9-9.2c0.7-0.4,1.3-1.1,1.7-1.8c1.4-2.3,2.6-4.8,4.2-7.1
		c3.5-5,8.2-8.8,12.7-12.8c1.8-1.6,3.6-3.2,5.6-4.9c-0.7-0.2-1.1-0.3-1.5-0.4c-4.1-0.6-8.1-1.1-12.2-1.7c-2.3-0.3-4.6-0.6-6.8-1.1
		c-2.5-0.6-3.1-1.8-2.3-4.3c0.3-0.9,0.8-1.8,1.3-2.6c4.4-7.9,8.9-15.8,13.2-23.8c1.4-2.5,2.4-5.1,3.7-7.9c-1,0-1.9,0-2.6,0
		c-4.8-0.3-6.3-1.8-5.8-6.6c0.9-8.4,2-16.9,3-25.3c0.3-2.3,0.3-4.6,0.4-6.8c-0.2,0-0.3,0-0.5,0c-1.9,5.3-3.7,10.6-5.5,16
		c-5.4,15.6-10.7,31.3-17.6,46.4c-7.4,16.1-16.3,31.2-28,44.6c-9.9,11.3-21.2,21-33.9,28.9c-15.7,9.8-32.6,16.6-50.7,20.3
		c-1.9,0.4-3.7,0.8-5.8,1.2c-8.4,1.2-17.2,1.9-26.2,1.9c-13.2,0-25.9-1.4-37.8-3.9c1.7,1.9,4.4,4.3,8.4,7.2c8.7,1.3,17.8,2,27.1,2
		c11.1,0,23.6-0.8,37.7-3.8c0.5-0.1,1-0.2,1.6-0.4c4.2-1.4,8.4-2.7,12.5-4.2c5.5-2,11-4.2,16.5-6.3c1.9-0.7,2.9-0.5,3.9,1.1
		c3,4.9,7.4,8.5,12.4,10.9c6,2.9,12.1,5.4,18.2,8.1c2.7,1.2,5.6,1.6,8.5,0.9c1.4-0.3,2.6,0,3.9,0.5c6.2,2.7,12.7,4,19.4,2.2
		c2-0.6,2.2-0.8,1.7-2.8c-0.1-0.5-0.3-0.9-0.5-1.4c-0.7-1.6-1.4-3.2-2.2-4.7c-1.8-3.8-1.1-5.2,3.1-5.7c6.6-0.8,13.2-1.4,19.8-2
		c2.6-0.3,5.2-0.5,8-0.8c-0.4-0.7-0.8-1.2-1.2-1.8c-2-3.1-1.7-4.5,1.7-5.9c3.3-1.4,6.7-2.5,10.1-3.7c2.3-0.8,4-2.2,4.6-4.7
		c0.2-0.6,0.7-1.2,1.3-1.6c2.5-1.8,5.2-3.5,7.7-5.3c3.3-2.3,6.6-4.7,8.8-8.2c0.3-0.5,0.6-1,1.1-1.9
		C251,359.1,247.7,359.4,244.5,359.9"/>
	<path class="st0" d="M284,294.8c0.2,6,1.2,8,2.7,8.6c1.3,0.5,2.8,0.5,4,0.5c0.8,0,1.3,0.2,1.3,0.6c0,0.6-0.7,0.8-1.8,0.8
		c-5,0-8.1-0.2-9.6-0.2c-0.7,0-4.3,0.2-8.4,0.2c-1,0-1.7-0.1-1.7-0.8c0-0.5,0.5-0.6,1.2-0.6c1,0,2.4-0.1,3.5-0.4
		c2-0.6,2.3-2.9,2.4-9.6l0.7-45.8c0-1.5,0.2-2.6,1-2.6c0.8,0,1.6,1,2.9,2.4c0.9,1,12.7,13.6,24,24.9c5.3,5.3,15.7,16.4,17,17.6h0.4
		l-0.8-34.8c-0.1-4.7-0.8-6.2-2.6-7c-1.2-0.5-3-0.5-4.1-0.5c-0.9,0-1.2-0.2-1.2-0.7c0-0.6,0.9-0.7,2-0.7c4,0,7.7,0.2,9.4,0.2
		c0.8,0,3.8-0.2,7.6-0.2c1,0,1.8,0.1,1.8,0.7c0,0.5-0.5,0.7-1.4,0.7c-0.8,0-1.4,0-2.3,0.2c-2.2,0.6-2.8,2.2-2.9,6.6l-0.9,48.9
		c0,1.7-0.3,2.4-1,2.4c-0.9,0-1.8-0.8-2.6-1.7c-4.9-4.6-14.8-14.8-22.8-22.8c-8.4-8.4-17-18-18.4-19.5h-0.2L284,294.8"/>
	<path class="st0" d="M357,285.1c-0.4,0-0.5,0.2-0.7,0.6l-4.2,11.1c-0.8,1.9-1.2,3.8-1.2,4.7c0,1.4,0.7,2.4,3.1,2.4h1.2
		c0.9,0,1.2,0.1,1.2,0.6c0,0.6-0.5,0.8-1.3,0.8c-2.5,0-5.8-0.2-8.2-0.2c-0.8,0-5.1,0.2-9.1,0.2c-1,0-1.5-0.2-1.5-0.8
		c0-0.5,0.3-0.6,0.9-0.6c0.7,0,1.8-0.1,2.4-0.2c3.6-0.5,5-3.1,6.6-7l19.4-48.6c0.9-2.2,1.4-3.1,2.2-3.1c0.7,0,1.2,0.7,1.9,2.5
		c1.9,4.3,14.3,35.8,19.2,47.6c2.9,7,5.2,8.1,6.8,8.4c1.2,0.2,2.3,0.3,3.3,0.3c0.6,0,1,0.1,1,0.6c0,0.6-0.7,0.8-3.6,0.8
		c-2.8,0-8.4,0-14.6-0.2c-1.4-0.1-2.3-0.1-2.3-0.6c0-0.5,0.3-0.6,1.1-0.7c0.5-0.2,1.1-0.8,0.7-1.8l-6.2-16.4
		c-0.2-0.4-0.4-0.5-0.8-0.5H357 M372.7,281.3c0.4,0,0.5-0.2,0.4-0.5l-7-19.1c-0.1-0.3-0.2-0.7-0.4-0.7c-0.2,0-0.4,0.4-0.5,0.7
		l-7.1,19c-0.1,0.3,0,0.5,0.3,0.5H372.7z"/>
	<path class="st0" d="M419.2,251.2l-11.5,0.3c-4.5,0.2-6.3,0.5-7.5,2.2c-0.8,1.2-1.2,2.1-1.3,2.7c-0.2,0.6-0.4,0.9-0.8,0.9
		c-0.5,0-0.7-0.4-0.7-1.2c0-1.2,1.5-8.3,1.6-8.9c0.2-1,0.5-1.5,0.9-1.5c0.6,0,1.4,0.8,3.3,0.9c2.2,0.2,5.2,0.4,7.8,0.4h30.7
		c5,0,6.8-0.8,7.4-0.8c0.5,0,0.6,0.5,0.6,1.6c0,1.6-0.2,7-0.2,9c-0.1,0.8-0.2,1.2-0.7,1.2c-0.6,0-0.8-0.4-0.9-1.6l-0.1-0.8
		c-0.2-2-2.2-4.2-9.1-4.3l-9.8-0.2v31.7c0,7.1,0,13.2,0.4,16.6c0.2,2.2,0.7,3.9,3,4.2c1.1,0.2,2.8,0.3,4,0.3c0.8,0,1.2,0.2,1.2,0.6
		c0,0.5-0.6,0.8-1.5,0.8c-5.1,0-10-0.2-12.2-0.2c-1.8,0-6.7,0.2-9.8,0.2c-1,0-1.5-0.2-1.5-0.8c0-0.4,0.3-0.6,1.2-0.6
		c1.2,0,2.1-0.2,2.8-0.3c1.5-0.3,2-2,2.2-4.3c0.4-3.3,0.4-9.4,0.4-16.5V251.2"/>
	<path class="st0" d="M461.4,269.3c0-11.8,0-13.9-0.2-16.4c-0.2-2.6-0.8-3.9-3.3-4.4c-0.6-0.2-1.9-0.2-3-0.2c-0.9,0-1.3-0.2-1.3-0.7
		c0-0.5,0.5-0.7,1.7-0.7c4.1,0,9,0.2,11.3,0.2c1.8,0,6.7-0.2,9.5-0.2c1.2,0,1.7,0.2,1.7,0.7c0,0.5-0.5,0.7-1.2,0.7
		c-0.8,0-1.3,0.1-2.2,0.2c-2.1,0.4-2.7,1.7-2.9,4.4c-0.2,2.5-0.2,4.6-0.2,16.4v10.8c0,11.2,2.2,15.9,6,19.1c3.5,2.9,7,3.2,9.7,3.2
		c3.4,0,7.6-1.1,10.7-4.2c4.3-4.3,4.5-11.2,4.5-19.2v-9.7c0-11.8,0-13.9-0.2-16.4c-0.1-2.6-0.8-3.9-3.3-4.4
		c-0.6-0.2-1.9-0.2-2.8-0.2c-0.9,0-1.3-0.2-1.3-0.7c0-0.5,0.5-0.7,1.6-0.7c4,0,8.8,0.2,8.9,0.2c0.9,0,5.8-0.2,8.8-0.2
		c1.1,0,1.6,0.2,1.6,0.7c0,0.5-0.5,0.7-1.4,0.7c-0.9,0-1.3,0.1-2.3,0.2c-2.1,0.4-2.7,1.7-2.9,4.4c-0.2,2.5-0.2,4.6-0.2,16.4v8.3
		c0,8.6-0.8,17.7-7.3,23.3c-5.5,4.7-11.1,5.6-16.1,5.6c-4.1,0-11.5-0.2-17.2-5.3c-3.9-3.6-6.9-9.3-6.9-20.5V269.3"/>
	<path class="st0" d="M530,269.3c0-11.8,0-13.9-0.2-16.4c-0.2-2.6-0.8-3.9-3.3-4.4c-0.6-0.2-1.9-0.2-3-0.2c-0.9,0-1.3-0.2-1.3-0.7
		c0-0.5,0.6-0.7,1.7-0.7c4.1,0,9,0.2,10.6,0.2c2.6,0,8.5-0.2,10.9-0.2c4.9,0,10.1,0.5,14.2,3.3c2.2,1.5,5.3,5.4,5.3,10.6
		c0,5.7-2.4,11-10.2,17.3c6.9,8.7,12.2,15.6,16.8,20.4c4.3,4.5,7.5,5,8.7,5.3c0.9,0.2,1.6,0.2,2.2,0.2c0.6,0,0.9,0.2,0.9,0.6
		c0,0.6-0.5,0.8-1.5,0.8h-7.4c-4.3,0-6.3-0.4-8.3-1.5c-3.3-1.8-6.3-5.4-10.6-11.4c-3.1-4.3-6.7-9.5-7.7-10.7
		c-0.4-0.5-0.9-0.5-1.4-0.5l-6.7-0.2c-0.4,0-0.6,0.2-0.6,0.6v1.1c0,7.2,0,13.3,0.4,16.6c0.2,2.2,0.7,3.9,3,4.3
		c1.2,0.2,2.9,0.3,3.8,0.3c0.6,0,0.9,0.2,0.9,0.6c0,0.5-0.5,0.8-1.6,0.8c-4.5,0-10.2-0.2-11.4-0.2c-1.5,0-6.4,0.2-9.4,0.2
		c-1,0-1.6-0.2-1.6-0.8c0-0.4,0.3-0.6,1.2-0.6c1.2,0,2.1-0.2,2.8-0.3c1.6-0.3,1.9-2,2.2-4.3c0.4-3.3,0.4-9.4,0.4-16.5V269.3
		 M539.1,275.4c0,0.8,0.2,1.2,0.7,1.4c1.6,0.5,4,0.8,5.9,0.8c3.1,0,4.1-0.3,5.5-1.3c2.3-1.7,4.6-5.3,4.6-11.6
		c0-11-7.3-14.2-11.8-14.2c-1.9,0-3.3,0.1-4.1,0.3c-0.5,0.2-0.7,0.5-0.7,1.1V275.4z"/>
	<path class="st0" d="M589.3,269.3c0-11.8,0-13.9-0.2-16.4c-0.2-2.6-0.8-3.9-3.3-4.4c-0.6-0.2-1.9-0.2-3-0.2c-0.9,0-1.3-0.2-1.3-0.7
		c0-0.5,0.5-0.7,1.7-0.7c4.1,0,9,0.2,11.1,0.2c2.5,0,17.9,0,19.4-0.1c1.5-0.2,2.7-0.3,3.3-0.5c0.4-0.1,0.9-0.3,1.2-0.3
		c0.4,0,0.5,0.3,0.5,0.7c0,0.5-0.4,1.5-0.6,5c-0.1,0.8-0.2,4.2-0.4,5.1c-0.1,0.4-0.2,0.8-0.8,0.8c-0.5,0-0.7-0.4-0.7-1.1
		c0-0.5-0.1-1.9-0.5-2.8c-0.5-1.4-1.3-2.3-5.2-2.8c-1.3-0.2-9.5-0.3-11-0.3c-0.4,0-0.5,0.2-0.5,0.8v19.6c0,0.5,0.1,0.9,0.5,0.9
		c1.7,0,10.6,0,12.4-0.2c1.9-0.2,3-0.4,3.7-1.2c0.5-0.6,0.8-1,1.2-1c0.3,0,0.5,0.2,0.5,0.6c0,0.5-0.4,1.7-0.6,5.7
		c-0.2,1.6-0.3,4.6-0.3,5.2c0,0.6,0,1.5-0.7,1.5c-0.5,0-0.7-0.3-0.7-0.7c-0.1-0.8-0.1-1.8-0.3-2.8c-0.4-1.6-1.5-2.7-4.3-3
		c-1.5-0.2-9.1-0.2-11-0.2c-0.4,0-0.5,0.3-0.5,0.8v6.1c0,2.6-0.1,9.8,0,12c0.1,5.3,1.4,6.5,9.3,6.5c2,0,5.3,0,7.3-0.9
		c2-0.9,2.9-2.6,3.5-5.7c0.2-0.8,0.3-1.2,0.8-1.2c0.6,0,0.6,0.6,0.6,1.4c0,1.8-0.6,7-1,8.6c-0.5,2-1.2,2-4.2,2
		c-11.7,0-16.9-0.5-21.4-0.5c-1.8,0-6.7,0.2-9.8,0.2c-1,0-1.6-0.2-1.6-0.8c0-0.4,0.3-0.6,1.2-0.6c1.2,0,2.1-0.2,2.8-0.3
		c1.6-0.3,1.9-2,2.2-4.3c0.4-3.3,0.4-9.4,0.4-16.5V269.3"/>
	<path class="st0" d="M278.1,407.8c-4.5-3.9-5.7-9.1-5.7-13.5c0-3.1,1-8.5,5.4-12.6c3.3-3,7.7-4.9,14.5-4.9c2.8,0,4.5,0.2,6.7,0.5
		c1.7,0.2,3.2,0.6,4.6,0.8c0.5,0,0.7,0.3,0.7,0.6c0,0.4-0.1,0.9-0.2,2.5c-0.1,1.5,0,4-0.1,5c0,0.7-0.1,1.1-0.5,1.1
		c-0.4,0-0.5-0.4-0.5-1c0-1.4-0.6-3-1.8-4.2c-1.5-1.6-5.1-2.9-9.3-2.9c-4,0-6.6,1-8.6,2.9c-3.3,3.1-4.2,7.4-4.2,11.9
		c0,10.9,8.3,16.3,14.5,16.3c4.1,0,6.6-0.5,8.4-2.6c0.8-0.9,1.4-2.2,1.6-3c0.1-0.7,0.2-0.9,0.6-0.9c0.3,0,0.4,0.3,0.4,0.7
		c0,0.5-0.6,4.5-1,6.1c-0.2,0.8-0.4,1-1.2,1.3c-1.8,0.7-5.3,1.1-8.3,1.1C287.5,412.8,282.3,411.4,278.1,407.8"/>
	<path class="st0" d="M343.4,400.1c-0.2,0-0.3,0.1-0.4,0.4l-2.5,6.6c-0.5,1.2-0.7,2.2-0.7,2.8c0,0.8,0.4,1.4,1.8,1.4h0.7
		c0.5,0,0.7,0.1,0.7,0.4c0,0.4-0.3,0.5-0.8,0.5c-1.5,0-3.5-0.1-4.9-0.1c-0.5,0-3,0.1-5.4,0.1c-0.6,0-0.9-0.1-0.9-0.5
		c0-0.3,0.2-0.4,0.6-0.4c0.4,0,1.1,0,1.4-0.1c2.1-0.3,3-1.8,3.9-4.1l11.5-28.8c0.5-1.3,0.8-1.8,1.3-1.8c0.4,0,0.7,0.4,1.1,1.5
		c1.1,2.5,8.4,21.2,11.4,28.2c1.7,4.1,3.1,4.8,4,5c0.7,0.1,1.4,0.2,1.9,0.2c0.4,0,0.6,0,0.6,0.4c0,0.4-0.4,0.5-2.1,0.5
		c-1.6,0-5,0-8.7-0.1c-0.8,0-1.4,0-1.4-0.4c0-0.3,0.2-0.4,0.6-0.4c0.3-0.1,0.6-0.5,0.4-1.1l-3.7-9.7c-0.1-0.2-0.2-0.3-0.5-0.3H343.4
		 M352.7,397.8c0.2,0,0.3-0.1,0.2-0.3l-4.1-11.3c0-0.2-0.1-0.4-0.2-0.4c-0.1,0-0.2,0.2-0.3,0.4l-4.2,11.3c0,0.2,0,0.3,0.2,0.3H352.7
		z"/>
	<path class="st0" d="M403.2,405.9c0.1,3.6,0.7,4.8,1.6,5.1c0.8,0.3,1.7,0.3,2.4,0.3c0.5,0,0.8,0.1,0.8,0.4c0,0.4-0.4,0.5-1.1,0.5
		c-3,0-4.8-0.1-5.7-0.1c-0.4,0-2.6,0.1-5,0.1c-0.6,0-1,0-1-0.5c0-0.3,0.3-0.4,0.7-0.4c0.6,0,1.4,0,2.1-0.2c1.2-0.4,1.4-1.7,1.4-5.7
		l0.4-27.2c0-0.9,0.1-1.6,0.6-1.6c0.5,0,0.9,0.6,1.7,1.4c0.5,0.6,7.5,8.1,14.2,14.7c3.1,3.1,9.3,9.7,10.1,10.5h0.2l-0.5-20.6
		c0-2.8-0.5-3.7-1.6-4.1c-0.7-0.3-1.8-0.3-2.4-0.3c-0.5,0-0.7-0.1-0.7-0.4c0-0.4,0.5-0.4,1.2-0.4c2.4,0,4.6,0.1,5.6,0.1
		c0.5,0,2.2-0.1,4.5-0.1c0.6,0,1.1,0,1.1,0.4c0,0.3-0.3,0.4-0.8,0.4c-0.5,0-0.8,0-1.4,0.1c-1.3,0.4-1.7,1.3-1.7,3.9l-0.5,29
		c0,1-0.2,1.4-0.6,1.4c-0.5,0-1.1-0.5-1.6-1c-2.9-2.8-8.8-8.8-13.5-13.5c-5-5-10.1-10.7-10.9-11.6h-0.1L403.2,405.9"/>
	<path class="st0" d="M471,400.1c-0.2,0-0.3,0.1-0.4,0.4l-2.5,6.6c-0.5,1.2-0.7,2.2-0.7,2.8c0,0.8,0.4,1.4,1.8,1.4h0.7
		c0.6,0,0.7,0.1,0.7,0.4c0,0.4-0.3,0.5-0.8,0.5c-1.5,0-3.4-0.1-4.9-0.1c-0.5,0-3,0.1-5.4,0.1c-0.6,0-0.9-0.1-0.9-0.5
		c0-0.3,0.2-0.4,0.6-0.4c0.4,0,1,0,1.4-0.1c2.1-0.3,3-1.8,3.9-4.1l11.5-28.8c0.6-1.3,0.8-1.8,1.3-1.8c0.4,0,0.7,0.4,1.1,1.5
		c1.1,2.5,8.4,21.2,11.4,28.2c1.7,4.1,3.1,4.8,4,5c0.7,0.1,1.4,0.2,1.9,0.2c0.4,0,0.6,0,0.6,0.4c0,0.4-0.4,0.5-2.1,0.5
		c-1.6,0-5,0-8.7-0.1c-0.8,0-1.4,0-1.4-0.4c0-0.3,0.2-0.4,0.6-0.4c0.3-0.1,0.6-0.5,0.4-1.1l-3.7-9.7c-0.1-0.2-0.2-0.3-0.5-0.3H471
		 M480.4,397.8c0.2,0,0.3-0.1,0.2-0.3l-4.1-11.3c0-0.2-0.1-0.4-0.2-0.4c-0.1,0-0.2,0.2-0.3,0.4l-4.2,11.3c0,0.2,0,0.3,0.2,0.3H480.4
		z"/>
	<path class="st0" d="M524.6,390.7c0-7,0-8.3-0.1-9.7c-0.1-1.6-0.5-2.3-2-2.6c-0.4-0.1-1.1-0.1-1.8-0.1c-0.5,0-0.8-0.1-0.8-0.4
		s0.3-0.4,1-0.4c2.4,0,5.3,0.1,6.6,0.1c1.4,0,4.3-0.1,7.1-0.1c5.7,0,13.4,0,18.4,5.2c2.3,2.4,4.5,6.2,4.5,11.7
		c0,5.8-2.4,10.2-5,12.8c-2.1,2.2-6.9,5.4-15.4,5.4c-1.6,0-3.5-0.1-5.3-0.3c-1.7-0.1-3.3-0.3-4.5-0.3c-0.5,0-1.5,0-2.6,0
		c-1.1,0-2.2,0.1-3.2,0.1c-0.6,0-0.9-0.1-0.9-0.5c0-0.2,0.2-0.4,0.7-0.4c0.7,0,1.2-0.1,1.7-0.2c0.9-0.2,1.1-1.2,1.3-2.5
		c0.2-1.9,0.2-5.6,0.2-9.8V390.7 M530.3,395.8c0,4.9,0,8.4,0.1,9.3c0,1.1,0.1,3,0.5,3.5c0.6,0.9,2.4,1.8,6,1.8
		c4.7,0,7.8-0.9,10.6-3.3c2.9-2.5,3.9-6.7,3.9-11.4c0-5.8-2.4-9.6-4.4-11.5c-4.2-4-9.4-4.6-13-4.6c-0.9,0-2.6,0.1-3,0.3
		c-0.4,0.2-0.5,0.4-0.5,0.9c0,1.6,0,5.5,0,9.2V395.8z"/>
	<path class="st0" d="M594.5,400.1c-0.2,0-0.3,0.1-0.4,0.4l-2.5,6.6c-0.5,1.2-0.7,2.2-0.7,2.8c0,0.8,0.4,1.4,1.8,1.4h0.7
		c0.6,0,0.7,0.1,0.7,0.4c0,0.4-0.3,0.5-0.8,0.5c-1.5,0-3.4-0.1-4.9-0.1c-0.5,0-3,0.1-5.4,0.1c-0.6,0-0.9-0.1-0.9-0.5
		c0-0.3,0.2-0.4,0.6-0.4c0.4,0,1.1,0,1.4-0.1c2.1-0.3,3-1.8,3.9-4.1l11.5-28.8c0.6-1.3,0.8-1.8,1.3-1.8c0.4,0,0.7,0.4,1.2,1.5
		c1.1,2.5,8.4,21.2,11.4,28.2c1.7,4.1,3.1,4.8,4,5c0.7,0.1,1.4,0.2,1.9,0.2c0.4,0,0.6,0,0.6,0.4c0,0.4-0.4,0.5-2.1,0.5
		c-1.7,0-5,0-8.7-0.1c-0.8,0-1.4,0-1.4-0.4c0-0.3,0.2-0.4,0.6-0.4c0.3-0.1,0.6-0.5,0.4-1.1l-3.7-9.7c-0.1-0.2-0.2-0.3-0.4-0.3H594.5
		 M603.9,397.8c0.2,0,0.3-0.1,0.2-0.3l-4.1-11.3c0-0.2-0.1-0.4-0.2-0.4c-0.1,0-0.2,0.2-0.3,0.4l-4.2,11.3c0,0.2,0,0.3,0.2,0.3H603.9
		z"/>
	<rect x="272.5" y="363.3" class="st0" width="347.5" height="1.8"/>
	<path class="st1" d="M277.3,348.9c-4.2-3.7-5.3-8.4-5.3-12.6c0-2.9,0.9-7.9,5-11.7c3.1-2.8,7.1-4.5,13.5-4.5c2.6,0,4.2,0.2,6.2,0.4
		c1.6,0.2,3,0.6,4.3,0.7c0.5,0,0.6,0.3,0.6,0.5c0,0.3-0.1,0.9-0.2,2.3c-0.1,1.4,0,3.7-0.1,4.6c0,0.6-0.1,1-0.5,1
		c-0.3,0-0.4-0.3-0.4-0.9c0-1.3-0.6-2.8-1.7-3.9c-1.4-1.5-4.7-2.6-8.6-2.6c-3.7,0-6.1,0.9-8,2.6c-3.1,2.9-3.9,6.9-3.9,11
		c0,10.1,7.7,15.2,13.4,15.2c3.8,0,6.1-0.4,7.8-2.4c0.7-0.8,1.3-2.1,1.4-2.8c0.1-0.7,0.2-0.8,0.6-0.8c0.3,0,0.4,0.3,0.4,0.6
		c0,0.5-0.5,4.2-0.9,5.7c-0.2,0.7-0.4,0.9-1.1,1.2c-1.7,0.7-4.9,1-7.7,1C286.1,353.6,281.2,352.3,277.3,348.9"/>
	<path class="st1" d="M304.9,336.9c0-7.3,4.8-16.7,17.6-16.7c10.6,0,17.2,6.2,17.2,15.9c0,9.8-6.8,17.5-17.6,17.5
		C309.8,353.6,304.9,344.4,304.9,336.9 M333.7,337.7c0-9.5-5.5-15.5-12.5-15.5c-4.9,0-10.5,2.7-10.5,13.3c0,8.9,4.9,15.9,13.1,15.9
		C326.8,351.5,333.7,350,333.7,337.7"/>
	<path class="st1" d="M349.1,347.2c0.1,3.3,0.6,4.4,1.5,4.7c0.7,0.3,1.5,0.3,2.2,0.3c0.5,0,0.7,0.1,0.7,0.3c0,0.3-0.4,0.4-1,0.4
		c-2.8,0-4.5-0.1-5.3-0.1c-0.4,0-2.4,0.1-4.6,0.1c-0.6,0-0.9,0-0.9-0.4c0-0.2,0.3-0.3,0.7-0.3c0.6,0,1.3,0,1.9-0.2
		c1.1-0.3,1.3-1.6,1.3-5.3l0.4-25.2c0-0.8,0.1-1.4,0.6-1.4c0.5,0,0.8,0.6,1.6,1.3c0.5,0.6,7,7.5,13.2,13.7c2.9,2.9,8.7,9,9.4,9.7
		h0.2l-0.4-19.1c0-2.6-0.4-3.4-1.4-3.8c-0.6-0.3-1.7-0.3-2.3-0.3c-0.5,0-0.7-0.1-0.7-0.4c0-0.3,0.5-0.4,1.1-0.4
		c2.2,0,4.3,0.1,5.2,0.1c0.5,0,2.1-0.1,4.2-0.1c0.6,0,1,0,1,0.4c0,0.2-0.3,0.4-0.8,0.4c-0.4,0-0.8,0-1.3,0.1
		c-1.2,0.3-1.5,1.2-1.6,3.6l-0.5,26.9c0,0.9-0.2,1.3-0.6,1.3c-0.5,0-1-0.5-1.4-0.9c-2.7-2.6-8.1-8.1-12.6-12.5
		c-4.6-4.6-9.4-9.9-10.1-10.7h-0.1L349.1,347.2"/>
	<path class="st1" d="M382.3,352.5c-0.7-0.3-0.8-0.5-0.8-1.5c0-2.3,0.2-4.9,0.2-5.6c0-0.6,0.2-1.1,0.5-1.1c0.4,0,0.4,0.4,0.4,0.7
		c0,0.6,0.2,1.4,0.4,2.2c0.9,3.2,3.5,4.3,6.1,4.3c3.8,0,5.7-2.6,5.7-4.9c0-2.1-0.6-4.1-4.2-6.8l-2-1.5c-4.7-3.7-6.3-6.6-6.3-10.1
		c0-4.7,3.9-8.1,9.8-8.1c2.8,0,4.6,0.4,5.7,0.7c0.4,0.1,0.6,0.2,0.6,0.5c0,0.6-0.2,1.8-0.2,5.1c0,0.9-0.1,1.3-0.5,1.3
		c-0.3,0-0.4-0.3-0.4-0.8c0-0.4-0.2-1.7-1.1-2.8c-0.6-0.8-1.9-2.1-4.6-2.1c-3.2,0-5.1,1.8-5.1,4.4c0,2,1,3.5,4.5,6.1l1.2,0.9
		c5.1,4,7,6.8,7,10.9c0,2.5-0.9,5.4-4,7.4c-2.1,1.4-4.5,1.7-6.8,1.7C386,353.6,384.1,353.3,382.3,352.5"/>
	<path class="st1" d="M408.7,333.1c0-6.5,0-7.7-0.1-9c-0.1-1.4-0.4-2.1-1.8-2.4c-0.4-0.1-1.1-0.1-1.7-0.1c-0.5,0-0.7-0.1-0.7-0.4
		c0-0.3,0.3-0.4,0.9-0.4c2.3,0,4.9,0.1,6.1,0.1c1.4,0,9.8,0,10.6,0c0.8-0.1,1.5-0.2,1.8-0.3c0.2,0,0.5-0.2,0.7-0.2
		c0.2,0,0.3,0.2,0.3,0.4c0,0.3-0.2,0.8-0.3,2.8c0,0.4-0.1,2.3-0.2,2.8c0,0.2-0.1,0.5-0.4,0.5c-0.3,0-0.4-0.2-0.4-0.6
		c0-0.3-0.1-1-0.3-1.5c-0.3-0.8-0.7-1.3-2.9-1.5c-0.7-0.1-5.2-0.2-6.1-0.2c-0.2,0-0.3,0.1-0.3,0.4v10.8c0,0.3,0,0.5,0.3,0.5
		c0.9,0,5.8,0,6.8-0.1c1-0.1,1.7-0.2,2-0.6c0.3-0.3,0.5-0.6,0.7-0.6c0.2,0,0.3,0.1,0.3,0.3c0,0.3-0.2,0.9-0.3,3.1
		c-0.1,0.8-0.2,2.6-0.2,2.9c0,0.3,0,0.8-0.4,0.8c-0.3,0-0.4-0.2-0.4-0.4c0-0.4,0-1-0.2-1.5c-0.2-0.9-0.8-1.5-2.4-1.7
		c-0.8-0.1-5-0.1-6-0.1c-0.2,0-0.3,0.2-0.3,0.4v3.4c0,1.5,0,5.4,0,6.6c0.1,2.9,0.8,3.6,5.1,3.6c1.1,0,2.9,0,4-0.5
		c1.1-0.5,1.6-1.4,1.9-3.2c0.1-0.5,0.2-0.6,0.5-0.6c0.3,0,0.3,0.3,0.3,0.8c0,1-0.3,3.9-0.5,4.7c-0.3,1.1-0.7,1.1-2.3,1.1
		c-6.4,0-9.3-0.3-11.8-0.3c-1,0-3.7,0.1-5.4,0.1c-0.6,0-0.8-0.1-0.8-0.4c0-0.2,0.2-0.3,0.7-0.3c0.6,0,1.2-0.1,1.5-0.2
		c0.8-0.2,1.1-1.1,1.2-2.3c0.2-1.8,0.2-5.2,0.2-9.1V333.1"/>
	<path class="st1" d="M435,333.1c0-6.5,0-7.7-0.1-9c-0.1-1.4-0.4-2.1-1.8-2.4c-0.3-0.1-1.1-0.1-1.7-0.1c-0.5,0-0.7-0.1-0.7-0.4
		c0-0.3,0.3-0.4,0.9-0.4c2.3,0,4.9,0.1,5.8,0.1c1.4,0,4.7-0.1,6-0.1c2.7,0,5.5,0.3,7.8,1.8c1.2,0.8,2.9,3,2.9,5.8
		c0,3.2-1.3,6-5.6,9.5c3.8,4.8,6.7,8.6,9.2,11.2c2.4,2.5,4.1,2.8,4.8,2.9c0.5,0.1,0.8,0.1,1.2,0.1c0.3,0,0.5,0.1,0.5,0.3
		c0,0.3-0.3,0.4-0.8,0.4h-4.1c-2.4,0-3.5-0.2-4.6-0.8c-1.8-1-3.4-3-5.8-6.3c-1.7-2.3-3.7-5.2-4.2-5.9c-0.2-0.3-0.5-0.3-0.8-0.3
		l-3.7-0.1c-0.2,0-0.3,0.1-0.3,0.3v0.6c0,4,0,7.3,0.2,9.1c0.1,1.2,0.4,2.2,1.7,2.3c0.6,0.1,1.6,0.2,2.1,0.2c0.3,0,0.5,0.1,0.5,0.3
		c0,0.3-0.3,0.4-0.8,0.4c-2.5,0-5.6-0.1-6.3-0.1c-0.8,0-3.5,0.1-5.2,0.1c-0.6,0-0.9-0.1-0.9-0.4c0-0.2,0.2-0.3,0.7-0.3
		c0.6,0,1.2-0.1,1.5-0.2c0.9-0.2,1.1-1.1,1.2-2.3c0.2-1.8,0.2-5.2,0.2-9.1V333.1 M440,336.5c0,0.5,0.1,0.6,0.4,0.8
		c0.9,0.3,2.2,0.4,3.2,0.4c1.7,0,2.2-0.2,3-0.7c1.3-0.9,2.5-2.9,2.5-6.4c0-6.1-4-7.8-6.5-7.8c-1.1,0-1.8,0-2.3,0.2
		c-0.3,0.1-0.4,0.3-0.4,0.6V336.5z"/>
	<path class="st1" d="M461.1,325c-1-2.3-1.7-2.8-3.2-3.2c-0.6-0.2-1.3-0.2-1.7-0.2c-0.4,0-0.5-0.1-0.5-0.4c0-0.3,0.5-0.4,1.1-0.4
		c2.3,0,4.7,0.1,6.2,0.1c1.1,0,3.1-0.1,5.2-0.1c0.5,0,1,0.1,1,0.4c0,0.3-0.3,0.4-0.6,0.4c-0.7,0-1.3,0-1.7,0.3
		c-0.3,0.2-0.4,0.5-0.4,0.9c0,0.6,0.4,1.7,1,3.3l7.3,19.3h0.2c1.8-4.7,7.4-18.4,8.4-21.2c0.2-0.6,0.4-1.2,0.4-1.6
		c0-0.3-0.2-0.7-0.6-0.8c-0.5-0.2-1.2-0.2-1.7-0.2c-0.4,0-0.7,0-0.7-0.3c0-0.3,0.4-0.4,1.2-0.4c2.1,0,3.9,0.1,4.5,0.1
		c0.7,0,2.7-0.1,4-0.1c0.6,0,0.9,0.1,0.9,0.4c0,0.3-0.3,0.4-0.7,0.4c-0.4,0-1.3,0-2.1,0.5c-0.6,0.4-1.2,1.1-2.4,3.8
		c-1.6,4-2.8,6.3-5.1,11.5c-2.7,6.2-4.7,10.9-5.7,13c-1.1,2.5-1.4,3.2-2,3.2c-0.5,0-0.8-0.6-1.6-2.6L461.1,325"/>
	<path class="st1" d="M495.5,341.9c-0.2,0-0.3,0.1-0.4,0.3l-2.3,6.1c-0.4,1.1-0.6,2.1-0.6,2.6c0,0.8,0.4,1.3,1.7,1.3h0.6
		c0.5,0,0.6,0.1,0.6,0.3c0,0.3-0.3,0.4-0.7,0.4c-1.4,0-3.2-0.1-4.5-0.1c-0.5,0-2.8,0.1-5,0.1c-0.6,0-0.8-0.1-0.8-0.4
		c0-0.2,0.2-0.3,0.5-0.3c0.4,0,1,0,1.3-0.1c2-0.3,2.8-1.7,3.6-3.8l10.7-26.8c0.5-1.2,0.8-1.7,1.2-1.7c0.4,0,0.6,0.4,1.1,1.4
		c1,2.3,7.8,19.7,10.6,26.2c1.6,3.8,2.9,4.4,3.8,4.6c0.6,0.1,1.3,0.2,1.8,0.2c0.4,0,0.6,0,0.6,0.3c0,0.3-0.4,0.4-2,0.4
		c-1.5,0-4.6,0-8-0.1c-0.8,0-1.3,0-1.3-0.3c0-0.2,0.2-0.3,0.6-0.4c0.3-0.1,0.6-0.5,0.4-1l-3.4-9c-0.1-0.2-0.2-0.3-0.4-0.3H495.5
		 M504.2,339.7c0.2,0,0.3-0.1,0.2-0.3l-3.8-10.5c0-0.2-0.1-0.4-0.2-0.4s-0.2,0.2-0.3,0.4l-3.9,10.5c0,0.2,0,0.3,0.2,0.3H504.2z"/>
	<path class="st1" d="M525.6,347.2c0.1,3.3,0.6,4.4,1.5,4.7c0.7,0.3,1.5,0.3,2.2,0.3c0.5,0,0.7,0.1,0.7,0.3c0,0.3-0.4,0.4-1,0.4
		c-2.8,0-4.5-0.1-5.3-0.1c-0.4,0-2.4,0.1-4.6,0.1c-0.6,0-0.9,0-0.9-0.4c0-0.2,0.3-0.3,0.7-0.3c0.6,0,1.3,0,1.9-0.2
		c1.1-0.3,1.3-1.6,1.3-5.3l0.4-25.2c0-0.8,0.1-1.4,0.6-1.4c0.5,0,0.8,0.6,1.6,1.3c0.5,0.6,7,7.5,13.2,13.7c2.9,2.9,8.7,9,9.4,9.7
		h0.2l-0.4-19.1c0-2.6-0.4-3.4-1.4-3.8c-0.6-0.3-1.7-0.3-2.3-0.3c-0.5,0-0.7-0.1-0.7-0.4c0-0.3,0.5-0.4,1.1-0.4
		c2.2,0,4.3,0.1,5.2,0.1c0.5,0,2.1-0.1,4.2-0.1c0.6,0,1,0,1,0.4c0,0.2-0.3,0.4-0.8,0.4c-0.4,0-0.8,0-1.3,0.1
		c-1.2,0.3-1.5,1.2-1.6,3.6l-0.5,26.9c0,0.9-0.2,1.3-0.6,1.3c-0.5,0-1-0.5-1.4-0.9c-2.7-2.6-8.1-8.1-12.6-12.5
		c-4.6-4.6-9.4-9.9-10.1-10.7h-0.1L525.6,347.2"/>
	<path class="st1" d="M561.9,348.9c-4.2-3.7-5.3-8.4-5.3-12.6c0-2.9,0.9-7.9,5-11.7c3.1-2.8,7.1-4.5,13.5-4.5c2.6,0,4.2,0.2,6.2,0.4
		c1.6,0.2,3,0.6,4.3,0.7c0.5,0,0.6,0.3,0.6,0.5c0,0.3-0.1,0.9-0.2,2.3c-0.1,1.4,0,3.7-0.1,4.6c0,0.6-0.1,1-0.5,1
		c-0.4,0-0.4-0.3-0.4-0.9c0-1.3-0.6-2.8-1.6-3.9c-1.4-1.5-4.7-2.6-8.7-2.6c-3.7,0-6.1,0.9-8,2.6c-3.1,2.9-3.9,6.9-3.9,11
		c0,10.1,7.7,15.2,13.4,15.2c3.8,0,6.1-0.4,7.8-2.4c0.7-0.8,1.3-2.1,1.4-2.8c0.1-0.7,0.2-0.8,0.5-0.8c0.3,0,0.4,0.3,0.4,0.6
		c0,0.5-0.5,4.2-0.9,5.7c-0.2,0.7-0.4,0.9-1.1,1.2c-1.7,0.7-4.9,1-7.7,1C570.6,353.6,565.7,352.3,561.9,348.9"/>
	<path class="st1" d="M600.5,342c0-2.3-0.4-3.2-1-4.5c-0.3-0.7-6-10.1-7.5-12.3c-1.1-1.6-2.1-2.6-2.9-3.1c-0.6-0.3-1.3-0.6-1.8-0.6
		c-0.3,0-0.6-0.1-0.6-0.4c0-0.3,0.3-0.4,0.8-0.4c0.8,0,4,0.1,5.4,0.1c0.9,0,2.7-0.1,4.6-0.1c0.4,0,0.6,0.1,0.6,0.4
		c0,0.3-0.3,0.3-0.9,0.5c-0.4,0.1-0.6,0.4-0.6,0.8c0,0.3,0.2,0.9,0.5,1.4c0.6,1.3,6.6,11.5,7.2,12.7c0.4-1,5.8-10.4,6.4-11.7
		c0.4-0.9,0.6-1.7,0.6-2.2c0-0.4-0.2-0.9-0.9-1.1c-0.4-0.1-0.8-0.2-0.8-0.4c0-0.3,0.2-0.4,0.7-0.4c1.4,0,2.8,0.1,4,0.1
		c0.9,0,3.7-0.1,4.6-0.1c0.5,0,0.8,0.1,0.8,0.3c0,0.3-0.3,0.4-0.8,0.4c-0.4,0-1.2,0.2-1.9,0.5c-0.9,0.4-1.4,0.9-2.3,2.1
		c-1.4,1.7-7.4,11.7-8.1,13.5c-0.6,1.5-0.6,2.9-0.6,4.3v3.5c0,0.7,0,2.5,0.1,4.3c0.1,1.2,0.5,2.2,1.8,2.3c0.6,0.1,1.5,0.2,2.1,0.2
		c0.5,0,0.7,0.1,0.7,0.3c0,0.3-0.3,0.4-0.9,0.4c-2.7,0-5.4-0.1-6.5-0.1c-1.1,0-3.8,0.1-5.3,0.1c-0.6,0-0.9-0.1-0.9-0.4
		c0-0.2,0.2-0.3,0.7-0.3c0.6,0,1.1-0.1,1.5-0.2c0.8-0.2,1.2-1.1,1.3-2.3c0.1-1.8,0.1-3.6,0.1-4.3V342"/>
</g>
</svg>
